<svg width="22" height="32" viewBox="0 0 22 32" fill="none" xmlns="http://www.w3.org/2000/svg">
<path fill-rule="evenodd" clip-rule="evenodd" d="M19.4885 16.7924C19.2171 17.2693 18.9192 17.7929 18.5956 18.3836L10.7342 32L2.87276 18.3836C2.35439 17.4149 1.92703 16.6515 1.57533 16.0233C0.25276 13.6608 0 13.2093 0 10.9367C0 4.89653 4.80585 0 10.7342 0C16.6625 0 21.4684 4.89653 21.4684 10.9367C21.4684 13.3132 20.7774 14.5275 19.4885 16.7924ZM10.9367 15.7975C13.845 15.7975 16.2025 13.4399 16.2025 10.5316C16.2025 7.62341 13.845 5.26582 10.9367 5.26582C8.02849 5.26582 5.6709 7.62341 5.6709 10.5316C5.6709 13.4399 8.02849 15.7975 10.9367 15.7975Z" fill="#5ACA6C"/>
</svg>
